<?xml version="1.0" standalone="no"?>
<!DOCTYPE svg PUBLIC "-//W3C//DTD SVG 20010904//EN"
 "http://www.w3.org/TR/2001/REC-SVG-20010904/DTD/svg10.dtd">
<svg version="1.0" xmlns="http://www.w3.org/2000/svg"
 width="256.000000pt" height="256.000000pt" viewBox="0 0 256.000000 256.000000"
 preserveAspectRatio="xMidYMid meet">

<g transform="translate(0.000000,256.000000) scale(0.100000,-0.100000)"
fill="#051d2e" stroke="none">
<path d="M1174 2550 c-122 -18 -235 -78 -330 -176 -87 -89 -136 -189 -154
-311 -7 -51 -15 -72 -37 -95 -27 -29 -28 -32 -28 -141 0 -142 20 -215 75 -269
23 -23 49 -65 65 -106 64 -160 165 -318 239 -372 19 -14 37 -34 40 -44 13 -49
-52 -125 -161 -187 -29 -16 -123 -53 -210 -81 -159 -50 -280 -105 -362 -161
-114 -78 -212 -207 -251 -330 -18 -56 -40 -198 -40 -254 l0 -23 1241 0 1241 0
-7 82 c-19 226 -92 376 -243 497 -85 69 -179 114 -373 179 -217 74 -308 125
-371 209 -44 57 -37 87 31 133 70 48 157 194 217 365 20 56 38 88 61 108 40
35 71 116 85 222 13 100 0 155 -42 187 -24 17 -30 29 -30 58 0 20 -7 63 -15
95 -35 138 -120 253 -244 334 -73 47 -129 67 -226 81 -78 11 -98 11 -171 0z
m227 -86 c87 -26 146 -61 207 -122 95 -95 136 -183 148 -318 6 -69 8 -72 40
-88 34 -16 34 -16 34 -83 0 -112 -35 -214 -81 -236 -18 -10 -33 -38 -65 -128
-61 -172 -96 -232 -191 -326 -80 -79 -83 -83 -83 -128 0 -64 22 -106 87 -165
79 -72 165 -116 342 -175 297 -99 434 -193 517 -358 28 -54 64 -184 64 -229
l0 -28 -1161 0 -1161 0 7 57 c17 138 81 260 187 358 75 70 232 148 413 206
160 51 246 94 323 164 73 66 96 111 89 172 -4 39 -13 52 -83 121 -87 85 -130
154 -198 320 -34 82 -50 107 -74 122 -39 24 -61 91 -69 207 l-6 83 37 34 c32
31 36 40 36 84 0 110 55 230 149 322 109 106 208 148 357 149 47 1 103 -6 135
-15z"/>
</g>
</svg>
